<?xml version="1.0"?>
<svg xmlns="http://www.w3.org/2000/svg" viewBox="0 0 512 512" width="512" height="512"><g id="E_learning-3" data-name="E learning"><path d="M425.735,152.19A340.873,340.873,0,0,0,368,144.427V48A40.045,40.045,0,0,0,328,8H120A40.045,40.045,0,0,0,80,48V464a40.045,40.045,0,0,0,40,40H328a40.045,40.045,0,0,0,40-40V368.447a324.81,324.81,0,0,1,54.265,7.363A8,8,0,0,0,432,368V160A8,8,0,0,0,425.735,152.19ZM267.056,24l-8,16H188.944l-8-16ZM352,464a24.027,24.027,0,0,1-24,24H120a24.027,24.027,0,0,1-24-24V48a24.027,24.027,0,0,1,24-24h43.056l13.789,27.578A8,8,0,0,0,184,56h80a8,8,0,0,0,7.155-4.422L284.944,24H328a24.027,24.027,0,0,1,24,24v96.036a339.149,339.149,0,0,0-72,7.781,337.406,337.406,0,0,0-145.735.373A8,8,0,0,0,128,160V368a8,8,0,0,0,9.735,7.81,321.532,321.532,0,0,1,140.53,0c.113.025.227.036.34.056.166.029.331.063.5.082.133.015.265.017.4.025.16.01.32.026.481.026H280c.256,0,.512-.016.766-.04.079-.008.158-.02.238-.03q.3-.038.589-.1c.048-.01.095-.013.142-.023A323.326,323.326,0,0,1,352,368.039ZM208,352.036a338.3,338.3,0,0,0-64,6.136V166.48a321.147,321.147,0,0,1,128,0V358.172A338.3,338.3,0,0,0,208,352.036Zm208,6.136a336.836,336.836,0,0,0-128,0V166.48a321.147,321.147,0,0,1,128,0Z"/><path d="M256,184H160a8,8,0,0,0-8,8v56a8,8,0,0,0,8,8h96a8,8,0,0,0,8-8V192A8,8,0,0,0,256,184Zm-8,56H168V200h80Z"/><path d="M256,264H160a8,8,0,0,0,0,16h96a8,8,0,0,0,0-16Z"/><path d="M152,304h24a8,8,0,0,0,0-16H152a8,8,0,0,0,0,16Z"/><path d="M216,288h-8a8,8,0,0,0,0,16h8a8,8,0,0,0,0-16Z"/><path d="M400,272H304a8,8,0,0,0,0,16h96a8,8,0,0,0,0-16Z"/><path d="M400,248H304a8,8,0,0,0,0,16h96a8,8,0,0,0,0-16Z"/><path d="M328,296H304a8,8,0,0,0,0,16h24a8,8,0,0,0,0-16Z"/><path d="M360,296h-8a8,8,0,0,0,0,16h8a8,8,0,0,0,0-16Z"/><path d="M296,192v40a8,8,0,0,0,8,8h96a8,8,0,0,0,8-8V192a8,8,0,0,0-8-8H304A8,8,0,0,0,296,192Zm16,8h80v24H312Z"/><path d="M176,456H120a8,8,0,0,0,0,16h56a8,8,0,0,0,0-16Z"/><path d="M208,456h-8a8,8,0,0,0,0,16h8a8,8,0,0,0,0-16Z"/></g></svg>
