<svg id="Layer_1" enable-background="new 0 0 512 512" height="512" viewBox="0 0 512 512" width="512" xmlns="http://www.w3.org/2000/svg"><g><path d="m499.5 422h-10v-304.92c0-20.678-16.822-37.5-37.5-37.5h-108.332v-27.962c0-28.462-23.156-51.618-51.618-51.618h-72.1c-28.462 0-51.618 23.156-51.618 51.618v27.962h-108.332c-20.678 0-37.5 16.822-37.5 37.5v304.92h-10c-6.893 0-12.5 5.607-12.5 12.5v34.549c0 23.683 19.268 42.951 42.951 42.951h426.098c23.683 0 42.951-19.268 42.951-42.951v-34.549c0-6.893-5.607-12.5-12.5-12.5zm-155.832-307.112h2.347c6.299 0 11.423 5.124 11.423 11.423 0 6.298-5.124 11.422-11.423 11.422h-2.347zm0 37.844h2.347c15.203.011 27.366-12.987 26.36-28.152h72.125v249.151h-18.64v-41.301c0-14.129-4.877-27.975-13.732-38.988-8.856-11.014-21.335-18.751-35.139-21.786l-67.199-14.761c-4.975-1.086-8.438-5.551-8.44-10.494v-12.896c25.347-15.384 42.318-43.248 42.318-75.002zm-144.678 120.228 6.441-1.415c6.113-1.344 11.335-4.877 14.948-9.642l24.143 17.74-15.434 15.434zm29.701 38.208-3.889 62.563h-123.662v-41.301c0-22 15.599-41.398 37.09-46.124l41.257-9.062 43.142 31.702c1.838 1.349 3.941 2.081 6.062 2.222zm57.691-64.029-30.382 22.325-30.382-22.325c.031-.624.058-5.717.033-6.388 9.461 3.502 19.686 5.419 30.35 5.419s20.888-1.917 30.35-5.419c-.013.671-.005 5.765.031 6.388zm-42.032 53.89 11.65-11.65 11.599 11.599 4.258 72.753h-32.027zm23.129-21.385 24.143-17.74c3.613 4.765 8.835 8.298 14.948 9.642l6.44 1.415-30.098 22.118zm21.894 29.3 43.14-31.701 41.256 9.062c21.492 4.726 37.091 24.124 37.091 46.124v41.302h-123.976l-3.662-62.561c2.151-.126 4.287-.857 6.151-2.226zm-106.041-194.309c10.817-.592 21.509-2.153 31.874-4.66 4.026-.974 6.501-5.027 5.527-9.054-.975-4.026-5.026-6.503-9.054-5.526-9.216 2.229-18.722 3.628-28.348 4.202v-47.979c.001-20.191 16.428-36.618 36.619-36.618h72.1c20.191 0 36.618 16.427 36.618 36.618v45.1c-6.201-2.706-12.011-6.201-17.336-10.485-7.358-5.922-13.503-13.088-18.26-21.298-1.673-2.89-4.521-4.86-7.814-5.407-3.288-.544-6.619.398-9.132 2.589-10.05 8.761-21.15 16.144-33.04 21.971-3.719 1.822-5.257 6.315-3.434 10.035 1.821 3.718 6.313 5.258 10.035 3.434 11.728-5.747 22.683-12.825 32.811-21.178 5.302 8.187 11.822 15.419 19.43 21.54 8.063 6.488 17.038 11.5 26.74 14.939v45.645c0 40.069-32.599 72.668-72.668 72.668s-72.668-32.599-72.668-72.668zm27.318 118.869v12.896c-.006 4.93-3.494 9.415-8.439 10.494l-67.201 14.761c-13.803 3.035-26.281 10.772-35.138 21.786-8.855 11.014-13.732 24.859-13.732 38.988v41.302h-18.64v-249.151h72.125c-1.022 15.115 11.132 28.186 26.36 28.152h2.347v5.77c0 31.754 16.971 59.619 42.318 75.002zm-56.087-107.193c0-6.299 5.124-11.423 11.423-11.423h2.347v22.845h-2.347c-6.299-.001-11.423-5.125-11.423-11.422zm342.437 342.738c0 15.412-12.539 27.951-27.951 27.951h-426.098c-15.412 0-27.951-12.539-27.951-27.951v-32.049h190.545v12.5c0 9.649 7.851 17.5 17.5 17.5h65.91c9.649 0 17.5-7.851 17.5-17.5v-12.5h72.043c4.143 0 7.5-3.357 7.5-7.5s-3.357-7.5-7.5-7.5h-340.998v-304.92c0-12.406 10.094-22.5 22.5-22.5h108.332v5.308h-2.347c-8.226 0-15.584 3.78-20.434 9.692h-81.551c-6.341 0-11.5 5.159-11.5 11.5v260.151c0 4.143 3.357 7.5 7.5 7.5h392c4.143 0 7.5-3.357 7.5-7.5v-260.151c0-6.341-5.159-11.5-11.5-11.5h-81.551c-4.85-5.913-12.208-9.692-20.434-9.692h-2.347v-5.308h108.332c12.406 0 22.5 10.094 22.5 22.5v304.92h-61.002c-4.143 0-7.5 3.357-7.5 7.5s3.357 7.5 7.5 7.5h83.502zm-276.455-19.549v-12.5h70.91v12.5c0 1.379-1.121 2.5-2.5 2.5h-65.91c-1.379 0-2.5-1.121-2.5-2.5zm16.377-243.596c5.712 3.132 12.166 4.823 18.662 4.892 8.306.087 15.383-2.637 19.495-4.893 3.632-1.992 4.96-6.551 2.968-10.183s-6.549-4.961-10.183-2.968c-2.545 1.396-6.654 3.045-11.863 3.045-5.146 0-9.343-1.661-11.866-3.046-3.633-1.994-8.191-.661-10.183 2.97-1.991 3.633-.662 8.191 2.97 10.183zm-19.602-52.241c4.143 0 7.5-3.357 7.5-7.5v-15.472c0-4.143-3.357-7.5-7.5-7.5s-7.5 3.357-7.5 7.5v15.472c0 4.143 3.358 7.5 7.5 7.5zm77.36 0c4.143 0 7.5-3.357 7.5-7.5v-15.472c0-4.143-3.357-7.5-7.5-7.5s-7.5 3.357-7.5 7.5v15.472c0 4.143 3.357 7.5 7.5 7.5z"/></g></svg>